<?xml version="1.0" encoding="utf-8"?>
<!-- Generator: Adobe Illustrator 25.2.3, SVG Export Plug-In . SVG Version: 6.00 Build 0)  -->
<svg version="1.1" id="Layer_1" xmlns="http://www.w3.org/2000/svg" xmlns:xlink="http://www.w3.org/1999/xlink" x="0px" y="0px"
	 viewBox="0 0 100 100" style="enable-background:new 0 0 100 100;" xml:space="preserve">
<style type="text/css">
	.st0{fill:#AFA5A5;}
</style>
<g>
	<path class="st0" d="M39.7,79.8c-5.6,0-10.6-3.5-12.6-8.7c-1.8,0.9-3.8,1.4-5.9,1.4c-7.4,0-13.5-6-13.5-13.5s6-13.5,13.5-13.5
		c1.3,0,2.6,0.2,3.8,0.6c1.8-5.5,6.9-9.2,12.8-9.2c2.9,0,5.6,0.9,7.9,2.6c2.9-1.7,6.1-2.6,9.4-2.6c10.2,0,18.6,8.3,18.6,18.6
		c0,10.2-8.3,18.6-18.6,18.6c-1.4,0-2.7-0.2-4.1-0.5C48.6,77.4,44.4,79.8,39.7,79.8z"/>
</g>
<g>
	<path d="M37.6,48.5C32,48.5,27,45,25.1,39.8c-1.8,0.9-3.8,1.4-5.9,1.4c-7.4,0-13.5-6-13.5-13.5s6-13.5,13.5-13.5
		c1.3,0,2.6,0.2,3.8,0.6c1.8-5.5,6.9-9.2,12.8-9.2c2.9,0,5.6,0.9,7.9,2.6c2.9-1.7,6.1-2.6,9.4-2.6c10.2,0,18.6,8.3,18.6,18.6
		c0,10.2-8.3,18.6-18.6,18.6c-1.4,0-2.7-0.2-4.1-0.5C46.6,46.1,42.3,48.5,37.6,48.5z"/>
</g>
<g>
	<path d="M60.5,91.4c-5.6,0-10.6-3.5-12.6-8.7c-1.8,0.9-3.8,1.4-5.9,1.4c-7.4,0-13.5-6-13.5-13.5s6-13.5,13.5-13.5
		c1.3,0,2.6,0.2,3.8,0.6c1.8-5.5,6.9-9.2,12.8-9.2c2.9,0,5.6,0.9,7.9,2.6c2.9-1.7,6.1-2.6,9.4-2.6c10.2,0,18.6,8.3,18.6,18.6
		c0,10.2-8.3,18.6-18.6,18.6c-1.4,0-2.7-0.2-4.1-0.5C69.4,89,65.1,91.4,60.5,91.4z"/>
</g>
</svg>
